<mxfile host="app.diagrams.net" modified="2021-04-21T16:08:57.661Z" agent="5.0 (Macintosh)" etag="svVEAyBdUq9gsSFDmwfu" version="14.6.3" type="github">
  <diagram name="Page-1" id="e7e014a7-5840-1c2e-5031-d8a46d1fe8dd">
    <mxGraphModel dx="2835" dy="831" grid="1" gridSize="10" guides="1" tooltips="1" connect="1" arrows="1" fold="1" page="1" pageScale="1" pageWidth="1169" pageHeight="826" background="#ffffff" math="0" shadow="0">
      <root>
        <mxCell id="0" />
        <mxCell id="1" parent="0" />
        <mxCell id="jp0W_AMjc9p8NJVpgyGg-41" value="Town" style="whiteSpace=wrap;html=1;aspect=fixed;align=center;verticalAlign=top;" vertex="1" parent="1">
          <mxGeometry x="335" y="240" width="310" height="310" as="geometry" />
        </mxCell>
        <mxCell id="jp0W_AMjc9p8NJVpgyGg-43" value="Shop" style="rounded=0;whiteSpace=wrap;html=1;" vertex="1" parent="1">
          <mxGeometry x="370" y="292.5" width="120" height="60" as="geometry" />
        </mxCell>
        <mxCell id="jp0W_AMjc9p8NJVpgyGg-46" value="Blacksmith" style="rounded=0;whiteSpace=wrap;html=1;" vertex="1" parent="1">
          <mxGeometry x="490" y="292.5" width="120" height="60" as="geometry" />
        </mxCell>
        <mxCell id="jp0W_AMjc9p8NJVpgyGg-48" value="Great Hall" style="rounded=0;whiteSpace=wrap;html=1;" vertex="1" parent="1">
          <mxGeometry x="370" y="352.5" width="120" height="60" as="geometry" />
        </mxCell>
        <mxCell id="jp0W_AMjc9p8NJVpgyGg-50" value="Food Court" style="rounded=0;whiteSpace=wrap;html=1;" vertex="1" parent="1">
          <mxGeometry x="490" y="352.5" width="120" height="60" as="geometry" />
        </mxCell>
        <mxCell id="jp0W_AMjc9p8NJVpgyGg-52" style="edgeStyle=orthogonalEdgeStyle;rounded=0;orthogonalLoop=1;jettySize=auto;html=1;exitX=0.5;exitY=1;exitDx=0;exitDy=0;" edge="1" parent="1">
          <mxGeometry relative="1" as="geometry">
            <mxPoint x="550" y="382.5" as="sourcePoint" />
            <mxPoint x="550" y="382.5" as="targetPoint" />
          </mxGeometry>
        </mxCell>
        <mxCell id="jp0W_AMjc9p8NJVpgyGg-55" value="&lt;div align=&quot;center&quot;&gt;&lt;blockquote&gt;&lt;div&gt;Castle&lt;/div&gt;&lt;/blockquote&gt;&lt;/div&gt;" style="rounded=0;whiteSpace=wrap;html=1;align=center;labelPosition=center;verticalLabelPosition=middle;verticalAlign=top;" vertex="1" parent="1">
          <mxGeometry x="1010" y="296" width="360" height="235" as="geometry" />
        </mxCell>
        <mxCell id="jp0W_AMjc9p8NJVpgyGg-58" value="&lt;div&gt;Jungle&lt;/div&gt;" style="rounded=0;whiteSpace=wrap;html=1;align=center;verticalAlign=top;" vertex="1" parent="1">
          <mxGeometry x="355" y="640" width="270" height="180" as="geometry" />
        </mxCell>
        <mxCell id="jp0W_AMjc9p8NJVpgyGg-61" value="&lt;div&gt;Coast&lt;/div&gt;" style="rounded=0;whiteSpace=wrap;html=1;align=center;horizontal=1;verticalAlign=top;" vertex="1" parent="1">
          <mxGeometry x="-140" y="267.5" width="330" height="255" as="geometry" />
        </mxCell>
        <mxCell id="jp0W_AMjc9p8NJVpgyGg-63" value="Mountain" style="rounded=0;whiteSpace=wrap;html=1;verticalAlign=top;" vertex="1" parent="1">
          <mxGeometry x="340" y="20" width="300" height="180" as="geometry" />
        </mxCell>
        <mxCell id="jp0W_AMjc9p8NJVpgyGg-77" value="" style="edgeStyle=orthogonalEdgeStyle;rounded=0;orthogonalLoop=1;jettySize=auto;html=1;" edge="1" parent="1" source="jp0W_AMjc9p8NJVpgyGg-67" target="jp0W_AMjc9p8NJVpgyGg-76">
          <mxGeometry relative="1" as="geometry" />
        </mxCell>
        <mxCell id="jp0W_AMjc9p8NJVpgyGg-67" value="Cave" style="rounded=0;whiteSpace=wrap;html=1;" vertex="1" parent="1">
          <mxGeometry x="370" y="60" width="120" height="60" as="geometry" />
        </mxCell>
        <mxCell id="jp0W_AMjc9p8NJVpgyGg-68" value="Desert" style="rounded=0;whiteSpace=wrap;html=1;verticalAlign=top;" vertex="1" parent="1">
          <mxGeometry x="710" y="325" width="260" height="205" as="geometry" />
        </mxCell>
        <mxCell id="jp0W_AMjc9p8NJVpgyGg-71" value="Dungeon" style="rounded=0;whiteSpace=wrap;html=1;" vertex="1" parent="1">
          <mxGeometry x="1070" y="340" width="120" height="60" as="geometry" />
        </mxCell>
        <mxCell id="jp0W_AMjc9p8NJVpgyGg-75" value="Cave" style="rounded=0;whiteSpace=wrap;html=1;" vertex="1" parent="1">
          <mxGeometry x="490" y="60" width="120" height="60" as="geometry" />
        </mxCell>
        <mxCell id="jp0W_AMjc9p8NJVpgyGg-76" value="Cave" style="rounded=0;whiteSpace=wrap;html=1;" vertex="1" parent="1">
          <mxGeometry x="370" y="120" width="120" height="60" as="geometry" />
        </mxCell>
        <mxCell id="jp0W_AMjc9p8NJVpgyGg-78" value="Dragons Layer" style="rounded=0;whiteSpace=wrap;html=1;" vertex="1" parent="1">
          <mxGeometry x="490" y="120" width="120" height="60" as="geometry" />
        </mxCell>
        <mxCell id="jp0W_AMjc9p8NJVpgyGg-80" value="Throne Room" style="rounded=0;whiteSpace=wrap;html=1;align=center;" vertex="1" parent="1">
          <mxGeometry x="1190" y="340" width="120" height="60" as="geometry" />
        </mxCell>
        <mxCell id="jp0W_AMjc9p8NJVpgyGg-82" value="Undead" style="rounded=0;whiteSpace=wrap;html=1;align=center;" vertex="1" parent="1">
          <mxGeometry x="780" y="365" width="120" height="60" as="geometry" />
        </mxCell>
        <mxCell id="jp0W_AMjc9p8NJVpgyGg-86" value="" style="shape=flexArrow;endArrow=classic;startArrow=classic;html=1;entryX=0.477;entryY=1.003;entryDx=0;entryDy=0;entryPerimeter=0;" edge="1" parent="1" target="jp0W_AMjc9p8NJVpgyGg-41">
          <mxGeometry width="100" height="100" relative="1" as="geometry">
            <mxPoint x="480" y="640" as="sourcePoint" />
            <mxPoint x="580" y="540" as="targetPoint" />
          </mxGeometry>
        </mxCell>
        <mxCell id="jp0W_AMjc9p8NJVpgyGg-87" value="Ork" style="rounded=0;whiteSpace=wrap;html=1;align=center;" vertex="1" parent="1">
          <mxGeometry x="370" y="680" width="120" height="60" as="geometry" />
        </mxCell>
        <mxCell id="jp0W_AMjc9p8NJVpgyGg-90" value="Waterfall" style="rounded=0;whiteSpace=wrap;html=1;align=center;" vertex="1" parent="1">
          <mxGeometry x="490" y="680" width="120" height="60" as="geometry" />
        </mxCell>
        <mxCell id="jp0W_AMjc9p8NJVpgyGg-91" value="Training Grounds" style="rounded=0;whiteSpace=wrap;html=1;align=center;" vertex="1" parent="1">
          <mxGeometry x="1070" y="400" width="120" height="60" as="geometry" />
        </mxCell>
        <mxCell id="jp0W_AMjc9p8NJVpgyGg-92" value="quicksand" style="rounded=0;whiteSpace=wrap;html=1;align=center;" vertex="1" parent="1">
          <mxGeometry x="370" y="740" width="120" height="60" as="geometry" />
        </mxCell>
        <mxCell id="jp0W_AMjc9p8NJVpgyGg-95" value="Goblins" style="rounded=0;whiteSpace=wrap;html=1;align=center;" vertex="1" parent="1">
          <mxGeometry x="-70" y="296" width="120" height="60" as="geometry" />
        </mxCell>
      </root>
    </mxGraphModel>
  </diagram>
</mxfile>
